<svg xmlns="http://www.w3.org/2000/svg" version="1.0" viewBox="0 0 720 131"><path d="M55.6 17.7c.3 1.6.9 4.2 1.4 5.8l.7 3.1-6.6-.4c-3.6-.2-8.5-.9-10.8-1.7-5.1-1.6-5.5-.5-1.1 2.6l3.1 2.3-4.1 1.7c-6.3 2.7-18.6 11.3-22.4 15.8-9 10.6-11.7 22.4-8 34.8 4.2 13.7 13.8 24.7 26.7 30.9 9.6 4.6 18.3 5.7 39 5.2 14-.4 18.2-.9 24-2.8 21.4-6.8 30.8-17.9 30.7-36-.1-8-1.4-13.5-4.9-20.4-5.1-10-17.9-20.7-28.3-23.7-2.5-.7-4.9-1.5-5.5-1.9-.5-.4-3.9.8-7.5 2.6s-6.2 3.3-5.8 3.4c.3 0 1.5.3 2.5.7 1 .3 1.5.3 1.1-.2-.4-.4 1.4-1.8 3.9-3.2 4.6-2.4 4.7-2.4 9.2-.7 14.5 5.4 22.3 12 28.1 23.7 10.7 21.8 5.9 40.4-12.6 49.2-11.8 5.6-19.4 6.9-39.4 6.9-20.4 0-27.1-1.2-36.4-6.2-7.6-4.1-15.9-13.1-20.3-22-3.5-7-3.8-8.3-3.8-16.1 0-6.9.4-9.5 2.2-13.1 6.3-12.8 27-28.6 34.8-26.6 1.4.4 2.5 1 2.5 1.4-.1.4-2.4 2.3-5.3 4.2-2.8 1.9-5 3.9-4.9 4.5.3 1.5 9.3 1.8 15.9.6 3.1-.6 5.9-.7 6.2-.3.3.5 2.4.9 4.6.9 2.2 0 5 .3 6.1.7 1.4.5 2.3.3 2.7-.6.4-1.1-.7-1.5-5-1.6-3-.1-6.1-.6-6.8-1.2-.9-.8-3.2-.8-7.8 0-3.5.7-7.7 1-9.3.8l-2.9-.3 4.8-3.3c2.6-1.8 4.7-3.7 4.7-4.2s-1.6-1.8-3.7-2.8l-3.6-1.9 5.4-.5c5.6-.6 8.2.4 7.3 2.7-.6 1.6 3 4.2 7.6 5.5 2.7.8 3.5.6 5.7-1.6 2.3-2.3 3.5-2.6 12-2.9 12.6-.5 13.2-1.5 1-1.5-5.4 0-9.7-.4-9.7-.8 0-.5.9-1.7 2-2.7 1.1-1 2-2.1 2-2.5 0-1.1-17.3-9-19.8-9-1.9 0-2.2.4-1.6 2.7zm13.9 3.6 4 2.1-3.8.9c-3.7.9-4.1.7-7.8-2.9-2.1-2.1-3.9-4.1-3.9-4.6 0-.8 5.2 1.3 11.5 4.5zm-.7 5.1c4.7-.7 5-.3 2.2 3.3-1.1 1.4-2 3.2-2 3.9 0 2-5 1.7-7.8-.4-1.9-1.4-2.4-3-2.6-7.1l-.3-5.2 3.2 3.1c2.9 2.8 3.6 3 7.3 2.4zM161.5 66.5c0 28.6.1 40.2.2 25.7.2-14.5.2-37.9 0-52-.1-14.1-.2-2.3-.2 26.3zM285.2 19.2c-10.1 1.5-18.6 7.9-23.3 17.4-3.3 6.8-3.5 21.6-.3 28.5 5.4 11.6 16.2 18.3 29.4 18.2 12.5 0 21.9-5.7 27.8-16.8 2.4-4.5 2.7-6 2.7-15.5s-.3-11-2.7-15.6c-6.4-12.2-19.4-18.4-33.6-16.2zm15.3 10.7c8.7 3.9 13.1 12.5 12.2 23.8-1 12.6-9.2 20.3-21.6 20.3-14.5 0-22.6-8.2-22.6-23 0-8.2 2-13.4 6.8-17.8 5.5-5.2 17.7-6.8 25.2-3.3zM425.2 19.2c-25.1 3.9-35 36.1-16.9 55.5 7.8 8.4 24.5 11.3 35.8 6.1 9.8-4.5 16-12.9 17.9-24.2 3.7-22.7-14.2-41-36.8-37.4zm14.6 10.4c8.6 3.5 13.1 11 13.2 21.5 0 5.1-.6 7.7-2.6 11.8-3.7 7.3-8.6 10.4-17.4 10.9-11 .7-17.9-2.8-22.2-11.2-4.4-8.3-2.4-23.1 3.9-28.8 5.9-5.3 17.7-7.3 25.1-4.2zM554.5 19.1c-13.9 1.8-24.2 12.1-26.5 26.5-3.8 23 15 41.6 37.6 37.4 29.5-5.6 34.8-47.5 7.8-61.3-4.3-2.2-12.9-3.4-18.9-2.6zm17.7 12.5c6.2 4.3 9.2 10.3 9.2 18.4.1 15.4-7.8 23.9-22 24-13.6 0-22.4-8.9-22.4-22.6 0-15.1 8.9-23.8 23.7-23.2 6.1.3 7.8.8 11.5 3.4zM675.5 19.1c-13.4 1.7-24.2 12.4-26.3 26.1-1.6 11.1 1.5 21.6 8.7 29.1 4.6 5 9.2 7.3 16.9 8.7 21.3 3.8 38.4-12.2 37-34.6-1.3-19.5-16.6-31.8-36.3-29.3zm17.7 12.5c14.4 10.1 12.4 34.3-3.4 40.8-5 2.1-14.3 2-19.3-.3-13.4-6.1-17-26.2-6.7-37.3 4.8-5.1 9.9-6.9 18.4-6.5 5.6.2 7.4.8 11 3.3zM208 51v32h8.9l.3-11.8.3-11.7L228 59c11-.6 14.6-1.8 18.7-6.2 10-10.7 4.6-28.7-9.8-32.8-1.9-.6-9.1-1-16.1-1H208v32zm29.8-20.3c5.6 4.2 5.9 12.6.5 17-2.5 2-4 2.3-12 2.3H217V27.8l9 .4c7 .3 9.6.9 11.8 2.5zM330 51v32h9V64.3c0-11 .4-18.3.9-17.8.5.6 4.3 8.9 8.4 18.5l7.6 17.5 4.8.3 4.8.2 8-18.7 8-18.7.3 18.7.2 18.7h9V19h-8.5l-10.4 24.3c-5.7 13.3-10.7 24.5-11.1 25-.3.4-5.5-10.5-11.4-24.3l-10.9-25H330v32zM470 51v32h10.8c16.7 0 24.3-2.8 32.1-11.6 10.6-12 9.4-32.9-2.4-43.2-7.6-6.7-15.9-9.2-31-9.2H470v32zm22.9-21.9c16.6 3.5 23.8 24 12.9 36.5-4.6 5.2-10.1 7.6-18.5 8.2l-7.3.5V28h4c2.1 0 6.2.5 8.9 1.1zM598 51v32h10V57h13l6.5 13 6.5 13h5c2.8 0 5-.2 5-.5s-3-6.5-6.6-13.7c-6-12-6.5-13.3-4.9-14.3 7.2-4.3 9.8-8.7 9.8-16.6 0-6.6-2.3-11.3-7.2-14.6-5.2-3.5-9.5-4.3-23.8-4.3H598v32zm26.9-22c5.2 1.5 8.1 4.7 8.1 9 0 7.3-4.7 10-17.7 10H608V28h6.8c3.7 0 8.2.4 10.1 1z"/><path d="M82.5 41c1.5.6.8.9-3 1.2-4.7.4-4.6.4 1.5.6 5.9.1 6.3 0 4.6-1.3-1.1-.8-2.7-1.5-3.5-1.4-1.1 0-1 .3.4.9zM210.5 99.5c-1.8 1.7-2.5 3.5-2.5 6.2 0 5.6 2.3 8.3 7 8.3s7-2.7 7-8.3c0-4.3-3.5-8.7-7-8.7-1.1 0-3.2 1.1-4.5 2.5zm7.9 1.7c2.2 3.1 2 7.4-.4 9.8-2.4 2.4-2.9 2.4-5.8.4-4.1-2.8-1.9-12.4 2.8-12.4 1 0 2.6 1 3.4 2.2zM238 105.5c0 5 .4 8.5 1 8.5s1-2.7 1-6.1c0-3.5.4-5.8.9-5.4.6.3 2.4 3 4.1 6 4.6 8.1 6 7.4 6-3 0-10.1-1.8-11.5-2.2-1.8l-.3 6.8-3.8-6.8c-5.3-9.3-6.7-8.9-6.7 1.8zM268 105.5v8.5h5.1c3.1 0 4.8-.4 4.4-1-.3-.6-2.2-1-4.1-1-3.1 0-3.4-.2-3.4-3s.3-3 3.5-3c1.9 0 3.5-.5 3.5-1 0-.6-1.6-1-3.5-1-3.1 0-3.5-.3-3.5-2.5s.4-2.5 3.5-2.5c1.9 0 3.5-.5 3.5-1 0-.6-2-1-4.5-1H268v8.5zM309 98c0 .5 1.1 1 2.5 1 2.4 0 2.5.2 2.5 7.5 0 4.3.4 7.5 1 7.5s1-3.2 1-7.5c0-7.3.1-7.5 2.5-7.5 1.4 0 2.5-.5 2.5-1 0-.6-2.7-1-6-1s-6 .4-6 1zM337.5 99.5c-1.8 1.7-2.5 3.5-2.5 6.2 0 5.6 2.3 8.3 7 8.3 4.8 0 7-2.7 7-8.6 0-3.4-.5-4.7-2.6-6.3-3.5-2.7-5.9-2.6-8.9.4zm7.7 1.2c2.7 2.4 2.4 8.7-.4 10.7-2.9 2-3.4 2-5.8-.4s-2.6-6.7-.4-9.8c1.8-2.6 4.1-2.8 6.6-.5zM366 105.5c0 5 .4 8.5 1 8.5s1-2.8 1-6.3l.1-6.2 2.5 4.2c1.4 2.4 3 4.3 3.4 4.3.5 0 2-1.9 3.4-4.3l2.6-4.2v6.2c0 3.5.4 6.3 1 6.3s1-3.5 1-8.5c0-4.7-.4-8.5-.9-8.5-.6 0-2.2 2.2-3.8 5-1.5 2.7-3 5-3.3 5-.3 0-1.7-2.3-3.2-5-1.6-2.8-3.2-5-3.8-5-.6 0-1 3.5-1 8.5zM403.5 98.2c-.2.7-1.6 4.4-3 8.2-1.4 3.8-2.3 7.1-2.1 7.4.8.7 2.6-.9 2.6-2.4 0-1 1.2-1.4 3.9-1.4 3.1 0 4.1.4 4.6 2 .6 1.9 2.6 2.9 2.4 1.2 0-.4-1.2-4-2.8-8.1-2.6-7.2-4.6-9.7-5.6-6.9zm4.1 9.5c-.2.3-1.5.3-2.9.1-2.5-.3-2.5-.4-1.1-3.8l1.5-3.5 1.5 3.4c.8 1.9 1.2 3.6 1 3.8zM426 98c0 .5.9 1 2 1 1.8 0 2 .7 2 7.5 0 9.6 1.8 9.8 2.2.2.3-6.6.5-7.2 2.6-7.5 4.4-.7 2.1-2.2-3.3-2.2-3 0-5.5.4-5.5 1zM455.3 98.2c-4.6 2.2-5.4 10.6-1.3 14.3 6.3 5.7 14.8-3.2 10.6-11.3-2.2-4.2-5-5.1-9.3-3zm7.3 3.4c2.3 3.4.9 9.3-2.4 10.5-3.6 1.3-7.6-3.1-6.8-7.4 1.1-5.8 6.3-7.6 9.2-3.1zM501.3 105.2c-3.1 8.5-3.3 11.1-.6 7 2.1-3 8.8-3.2 9.6-.2.3 1.1 1 2 1.6 2 .7 0 .4-1.8-.8-4.8-1-2.6-2.4-6.4-3-8.5-.7-2-1.8-3.7-2.5-3.7s-2.7 3.7-4.3 8.2zm6.2 0c.6 2.5.5 2.8-1.9 2.8-2.9 0-3.1-.6-1.6-4.6 1.2-3.1 2.5-2.4 3.5 1.8zM526 97.9c0 .5 1 1.1 2.3 1.3 2 .3 2.2.9 2.5 7.5.4 9.6 2.2 9.4 2.2-.2 0-7.4 0-7.5 2.6-7.5 1.4 0 2.3-.4 1.9-1-.8-1.3-11.5-1.3-11.5-.1zM575 97.4c0 .3-1.3 4.1-3 8.5-1.6 4.6-2.5 8.1-1.9 8.1.6 0 1.3-.9 1.6-2 .8-2.9 8.2-2.9 9 0 .5 1.9 2.3 2.9 2.3 1.2 0-2.4-5.7-16.2-6.7-16.2-.7 0-1.3.2-1.3.4zm4 9.3c0 .7-1.1 1.3-2.5 1.3-2.8 0-3-.6-1.4-4.7l1.1-2.8 1.3 2.5c.8 1.4 1.4 3.1 1.5 3.7zM615 97.9c0 .5 1 1.1 2.3 1.3 2 .3 2.2.9 2.5 7.5.4 9.6 2.2 9.4 2.2-.2 0-7.4 0-7.5 2.6-7.5 1.4 0 2.3-.4 1.9-1-.8-1.3-11.5-1.3-11.5-.1zM640 105.5c0 5 .4 8.5 1 8.5s1-3.5 1-8.5-.4-8.5-1-8.5-1 3.5-1 8.5zM659 105.5c0 9.8 1.8 11.6 2.2 2.2l.3-6.2 2.4 4.2c2.9 5.1 4.4 5.4 6.1 1.3.7-1.6 1.8-3.5 2.6-4.1 1.2-1 1.4-.1 1.4 5 0 3.4.4 6.1 1 6.1s1-3.5 1-8.5c0-10.2-1.3-11-5.4-3.5-1.5 2.7-2.9 5-3.1 5-.2 0-1.6-2.2-3.2-5-4.1-7.4-5.3-6.6-5.3 3.5zM692 105.5v8.5h5c2.8 0 5-.5 5-1 0-.6-1.8-1-4.1-1-3.8 0-4-.1-3.7-2.8.3-2.3.8-2.7 4.1-3 5-.4 4.7-2.2-.4-2.2-3.6 0-4-.2-3.7-2.3.2-1.8 1-2.3 4.1-2.5 5.5-.5 4.5-2.2-1.3-2.2h-5v8.5z"/></svg>